# xmcd
#
# Track frame offsets:
#	150
#	15374
#	35012
#	54561
#	75814
#	90205
#	110935
#	125899
#	145794
#	161023
#	180675
#	200067
#	221167
#	235303
#	256095
#	271059
#
# Disc length: 3879 seconds
#
# Revision: 1
# Processed by: cddbd v1.5.2PL0 Copyright (c) Steve Scherf et al.
# Submitted via: audiograbber 1.82.01
#
DISCID=db0f2510
DTITLE=Gerry PICARD - Banquier Banquier Copiez Le
DYEAR=2006
DGENRE=Chanson
TTITLE0=Aita E TA'A I RA'A
TTITLE1=Matahiapo
TTITLE2=Puta Roa Te'A'AU
TTITLE3=No Oe
TTITLE4=Banquier Banquier Copiez Le
TTITLE5=Tamarii' Otare
TTITLE6=Fare Ha'Apa'Ora' A Tamarii'
TTITLE7=Te Mata O Te' Aremiti
TTITLE8=Aita E TA'A I RA'A - Karaoke
TTITLE9=Matahiapo - Karaoke
TTITLE10=Puta Roa Te'A'AU - Karaoke
TTITLE11=No Oe - Karaoke
TTITLE12=Banquier Banquier Copiez Le - Karaoke
TTITLE13=Tamarii' Otare - Karaoke
TTITLE14=Fare Ha'Apa'Ora' A Tamarii' - Karaoke
TTITLE15=Te Mata O Te' Aremiti - Karaoke
EXTD=Music from French Polynesia.
EXTT0=
EXTT1=
EXTT2=
EXTT3=
EXTT4=
EXTT5=
EXTT6=
EXTT7=
EXTT8=
EXTT9=
EXTT10=
EXTT11=
EXTT12=
EXTT13=
EXTT14=
EXTT15=
PLAYORDER=
